<svg width="80" height="80" viewBox="0 0 80 80" fill="none" xmlns="http://www.w3.org/2000/svg">
<path d="M35.3457 10.5293H41.7295V15.9974H35.3457V10.5293Z" fill="#2FDDBB"/>
<path d="M30.3342 3.94141H43.7767C49.1078 3.94153 54.3213 5.50832 58.7692 8.44703L61.193 10.0483L58.2686 13.2633C54.0996 11.4592 49.605 10.5286 45.0624 10.5289H30.3342V3.94141Z" fill="#F4D32C"/>
<path d="M30.3344 26.375C26.8954 27.9467 23.9806 30.4737 21.9369 33.6549C19.8932 36.8361 18.8067 40.5376 18.8069 44.3188V70.2563C18.8069 71.7952 19.4182 73.2712 20.5064 74.3595C21.5945 75.4477 23.0704 76.0592 24.6094 76.0594H52.4663C54.0052 76.0592 55.4811 75.4477 56.5693 74.3595C57.6574 73.2712 58.2688 71.7952 58.2688 70.2563V44.3188C58.2689 40.5376 57.1825 36.8361 55.1388 33.6549C53.0951 30.4737 50.1802 27.9467 46.7413 26.375H30.3344Z" fill="#2FDDBB"/>
<path d="M30.3342 15.9971H46.7405V26.3758H30.3342V15.9971Z" fill="#F4D32C"/>
<path d="M18.8069 45.6001H58.2688V65.2863H18.8069V45.6001Z" fill="#FF5086"/>
<path d="M58.2686 26.1425C57.5325 26.1425 56.8265 25.8501 56.306 25.3295C55.7854 24.809 55.493 24.103 55.493 23.3669C55.4767 20.7188 58.2686 17.4375 58.2686 17.4375C58.2686 17.4375 61.0605 20.7219 61.0442 23.37C61.0434 24.1056 60.7506 24.8108 60.2302 25.3306C59.7097 25.8505 59.0042 26.1425 58.2686 26.1425Z" fill="#2FDDBB"/>
<path d="M24.3968 41.7161C24.2315 41.7157 24.0685 41.678 23.9199 41.6056C23.7713 41.5333 23.641 41.4282 23.5387 41.2983C23.4365 41.1684 23.365 41.0171 23.3296 40.8557C23.2942 40.6942 23.2958 40.5268 23.3343 40.3661C23.9556 37.7995 25.2167 35.4319 26.9999 33.4842C27.0969 33.3783 27.2138 33.2924 27.3439 33.2317C27.4741 33.1709 27.6149 33.1363 27.7584 33.13C27.9019 33.1236 28.0453 33.1456 28.1803 33.1946C28.3153 33.2437 28.4393 33.3188 28.5452 33.4158C28.6512 33.5128 28.737 33.6297 28.7978 33.7598C28.8586 33.8899 28.8932 34.0308 28.8995 34.1743C28.9059 34.3178 28.8839 34.4611 28.8348 34.5961C28.7858 34.7311 28.7107 34.8551 28.6137 34.9611C27.0806 36.6358 25.9963 38.6713 25.4618 40.878C25.4044 41.1171 25.2681 41.3299 25.0749 41.482C24.8816 41.6341 24.6427 41.7166 24.3968 41.7161ZM31.0106 32.6873C30.7716 32.6877 30.5391 32.6098 30.3486 32.4655C30.1581 32.3213 30.0201 32.1186 29.9556 31.8885C29.8912 31.6583 29.9039 31.4135 29.9918 31.1912C30.0798 30.969 30.238 30.7817 30.4424 30.658C30.957 30.3467 31.4889 30.065 32.0356 29.8142C32.2986 29.6978 32.5969 29.6898 32.8659 29.7918C33.1348 29.8937 33.3528 30.0976 33.4725 30.3591C33.5923 30.6206 33.6042 30.9188 33.5057 31.1891C33.4072 31.4593 33.2062 31.6799 32.9462 31.803C32.4761 32.0186 32.0187 32.2608 31.5762 32.5286C31.4058 32.6325 31.2101 32.6874 31.0106 32.6873Z" fill="#FFEEA4"/>
</svg>
