<svg width="128" height="128" viewBox="0 0 128 128" fill="none" xmlns="http://www.w3.org/2000/svg">
<path d="M31.4641 111.346H96.5361V121.693H31.4641V111.346Z" fill="#FF5086"/>
<path d="M6.30591 52.8877H121.694V88.3457C121.694 94.4457 119.271 100.296 114.957 104.609C110.644 108.922 104.794 111.346 98.6939 111.346H29.3059C23.2059 111.346 17.3558 108.922 13.0425 104.609C8.72912 100.296 6.30591 94.4457 6.30591 88.3457V52.8877Z" fill="#F4D32C"/>
<path d="M68.127 52.8881L96.792 24.2221C99.5277 21.4868 103.238 19.9502 107.106 19.9502C110.975 19.9502 114.685 21.4868 117.421 24.2221C118.776 25.5766 119.85 27.1846 120.583 28.9544C121.316 30.7242 121.694 32.621 121.694 34.5366C121.694 36.4523 121.316 38.3491 120.583 40.1189C119.85 41.8887 118.776 43.4967 117.421 44.8512L109.384 52.8881H68.127Z" fill="#FF5086"/>
<path d="M39.245 52.8877C36.1862 49.8291 33.7598 46.1981 32.1044 42.2018C30.449 38.2055 29.5969 33.9223 29.5969 29.5967C29.5969 25.2711 30.449 20.9878 32.1044 16.9916C33.7598 12.9953 36.1862 9.36419 39.245 6.30566C45.422 12.4829 48.8922 20.8609 48.8922 29.5967C48.8922 38.3324 45.422 46.7104 39.245 52.8877Z" fill="#2FDDBB"/>
<path d="M39.2449 52.8882C39.2449 48.5626 38.3929 44.2794 36.7376 40.2831C35.0822 36.2868 32.6559 32.6557 29.5972 29.5972C26.5386 26.5386 22.9074 24.1124 18.911 22.4572C14.9147 20.8019 10.6315 19.9501 6.30591 19.9502C6.30591 24.2758 7.15791 28.559 8.81326 32.5553C10.4686 36.5515 12.8949 40.1826 15.9536 43.2412C19.0123 46.2998 22.6434 48.726 26.6398 50.3812C30.6361 52.0365 34.9193 52.8883 39.2449 52.8882ZM39.2449 52.8882C39.2449 44.1525 42.7152 35.7746 48.8922 29.5975C55.0693 23.4204 63.4472 19.9502 72.1829 19.9502C72.1829 24.2757 71.3309 28.5588 69.6757 32.555C68.0204 36.5512 65.5942 40.1823 62.5356 43.2409C59.477 46.2995 55.846 48.7257 51.8497 50.3809C47.8535 52.0362 43.5704 52.8882 39.2449 52.8882Z" fill="#2FDDBB"/>
<path d="M39.2401 52.8902C38.3801 52.8902 37.5301 52.8602 36.6801 52.7902C28.8573 52.1785 21.5098 48.7942 15.9604 43.2467C10.4111 37.6992 7.02437 30.3528 6.41006 22.5302C6.34006 21.6802 6.31006 20.8202 6.31006 19.9502C7.18006 19.9502 8.03006 19.9802 8.88006 20.0502C16.7012 20.664 24.0464 24.0492 29.5937 29.5965C35.1411 35.1439 38.5263 42.4891 39.1401 50.3102C39.2101 51.1602 39.2401 52.0202 39.2401 52.8902ZM72.1801 19.9502C72.1801 20.8202 72.1501 21.6802 72.0801 22.5302C71.4658 30.3528 68.0791 37.6992 62.5297 43.2467C56.9803 48.7942 49.6329 52.1785 41.8101 52.7902C40.9601 52.8602 40.1001 52.8902 39.2401 52.8902C39.2401 52.0202 39.2701 51.1602 39.3401 50.3102C39.956 42.4882 43.3432 35.1427 48.8922 29.5955C54.4412 24.0483 61.7878 20.6635 69.6101 20.0502C70.4601 19.9802 71.3201 19.9502 72.1801 19.9502Z" fill="#2FDDBB"/>
<path d="M98.28 102.018H92.637C92.1728 102.018 91.7277 101.834 91.3995 101.506C91.0713 101.177 90.887 100.732 90.887 100.268C90.887 99.804 91.0713 99.3589 91.3995 99.0307C91.7277 98.7025 92.1728 98.5181 92.637 98.5181H98.28C101.086 98.5142 103.776 97.3977 105.76 95.4135C107.745 93.4293 108.861 90.7392 108.865 87.9331V83.0121C108.865 82.548 109.049 82.1029 109.378 81.7747C109.706 81.4465 110.151 81.2621 110.615 81.2621C111.079 81.2621 111.524 81.4465 111.852 81.7747C112.181 82.1029 112.365 82.548 112.365 83.0121V87.9331C112.361 91.6675 110.876 95.2478 108.235 97.8883C105.595 100.529 102.014 102.014 98.28 102.018ZM110.615 76.9831C110.151 76.9831 109.706 76.7988 109.378 76.4706C109.049 76.1424 108.865 75.6973 108.865 75.2331V71.2861C108.865 70.822 109.049 70.3769 109.378 70.0487C109.706 69.7205 110.151 69.5361 110.615 69.5361C111.079 69.5361 111.524 69.7205 111.852 70.0487C112.181 70.3769 112.365 70.822 112.365 71.2861V75.2331C112.365 75.463 112.32 75.6906 112.232 75.903C112.144 76.1154 112.015 76.3083 111.853 76.4709C111.69 76.6334 111.497 76.7623 111.285 76.8502C111.072 76.9381 110.845 76.9833 110.615 76.9831Z" fill="#FFEEA4"/>
<path d="M39.1401 50.3102C39.2101 51.1602 39.2401 52.0202 39.2401 52.8902C38.3801 52.8902 37.5301 52.8602 36.6801 52.7902L6.41006 22.5302C6.34006 21.6802 6.31006 20.8202 6.31006 19.9502C7.18006 19.9502 8.03006 19.9802 8.88006 20.0502L39.1401 50.3102ZM72.1801 19.9502C72.1801 20.8202 72.1501 21.6802 72.0801 22.5302L41.8101 52.7902C40.9601 52.8602 40.1001 52.8902 39.2401 52.8902C39.2401 52.0202 39.2701 51.1602 39.3401 50.3102L69.6101 20.0502C70.4601 19.9802 71.3201 19.9502 72.1801 19.9502Z" fill="#FF5086"/>
<path d="M40.99 8.21957V50.9796C40.45 51.6296 39.86 52.2696 39.24 52.8896C38.62 52.2696 38.03 51.6296 37.49 50.9796V8.21957C38.03 7.56957 38.62 6.92957 39.24 6.30957C39.86 6.92957 40.45 7.56957 40.99 8.21957Z" fill="#FF5086"/>
</svg>
