<svg width="39" height="39" viewBox="0 0 39 39" fill="none" xmlns="http://www.w3.org/2000/svg">
<path d="M19.2273 24.0342V36.0512" stroke="#B37A59" stroke-width="2.07965"/>
<path d="M19.2272 5.28462L17.3881 8.34981C15.9422 10.7597 15.2193 11.9646 15.2193 13.296C15.2193 14.6274 15.9422 15.8323 17.3881 18.2422L18.5403 20.1624C18.847 20.6737 19.0004 20.9294 19.2272 20.9294C19.454 20.9294 19.6074 20.6737 19.9142 20.1624L21.0663 18.2422C22.5122 15.8323 23.2352 14.6274 23.2352 13.296C23.2352 11.9646 22.5122 10.7597 21.0663 8.34981L19.2272 5.28462ZM19.2272 5.28462V2.08008" stroke="#B37A59" stroke-width="2.07965"/>
<path d="M32.3023 19.061L28.7282 19.0009C25.9182 18.9536 24.5133 18.93 23.3602 19.5957C22.2072 20.2614 21.5252 21.4899 20.1611 23.947L19.0742 25.905C18.7848 26.4263 18.6401 26.6869 18.7535 26.8834C18.8669 27.0798 19.165 27.0848 19.7612 27.0948L22.0003 27.1325C24.8102 27.1798 26.2152 27.2034 27.3682 26.5377C28.5212 25.872 29.2033 24.6434 30.5673 22.1863L32.3023 19.061ZM32.3023 19.061L35.0775 17.4587" stroke="#B37A59" stroke-width="2.07965"/>
<path d="M6.15233 19.061L9.72641 19.0009C12.5364 18.9536 13.9413 18.93 15.0944 19.5957C16.2474 20.2614 16.9294 21.4899 18.2934 23.947L19.3803 25.905C19.6698 26.4263 19.8145 26.6869 19.7011 26.8834C19.5877 27.0798 19.2896 27.0848 18.6934 27.0948L16.4543 27.1325C13.6444 27.1798 12.2394 27.2034 11.0864 26.5377C9.93335 25.872 9.25133 24.6434 7.8873 22.1863L6.15233 19.061ZM6.15233 19.061L3.37711 17.4587" stroke="#B37A59" stroke-width="2.07965"/>
</svg>
