<svg width="122" height="128" viewBox="0 0 122 128" fill="none" xmlns="http://www.w3.org/2000/svg">
<path d="M91.6333 64.0467C97.4731 34.1347 96.1845 15.7717 96.1845 15.7717C96.1845 15.7717 86.251 24.1347 72.8682 41.9857C67.2628 18.8177 60.9998 6.30566 60.9998 6.30566C60.9998 6.30566 54.7369 18.8177 49.1334 41.9897C35.7487 24.1347 25.8152 15.7717 25.8152 15.7717C25.8152 15.7717 24.5266 34.1347 30.3664 64.0467C16.9445 52.8197 6.01025 45.4437 6.01025 45.4437C6.01025 45.4437 14.9439 121.694 60.9998 121.694C107.056 121.694 115.989 45.4437 115.989 45.4437C115.989 45.4437 105.055 52.8197 91.6333 64.0467Z" fill="#2FDDBB"/>
<path d="M92.6724 65.41C88.161 69.18 83.9418 72.9067 80.0149 76.59C80.0054 76.6 79.9863 76.61 79.9768 76.63C73.706 82.4356 67.7882 88.6477 62.2582 95.23C55.1479 103.81 50.0772 111.86 47.1988 119.16C46.1504 118.75 45.121 118.3 44.1202 117.8C47.0082 110.49 51.9644 102.53 58.7983 94.11C53.5333 87.9482 47.9322 82.1117 42.0233 76.63C42.0138 76.61 41.9947 76.6 41.9852 76.59C38.0488 72.91 33.8296 69.1834 29.3277 65.41C28.9819 65.1232 28.7587 64.7042 28.7069 64.245C28.655 63.7857 28.7789 63.3236 29.0513 62.96C29.4897 63.32 29.9282 63.68 30.3666 64.05C30.2522 63.47 30.1474 62.9 30.033 62.33C30.2722 62.2781 30.5194 62.2826 30.7568 62.3431C30.9941 62.4037 31.2157 62.5187 31.4055 62.68C35.0941 65.76 38.5635 68.81 41.8804 71.84C43.2349 61.6473 45.1153 51.5391 47.5133 41.56C47.6033 41.1881 47.8077 40.8577 48.0947 40.62C48.4379 41.07 48.7905 41.53 49.1337 41.99C49.2766 41.42 49.4101 40.85 49.553 40.29C49.9785 40.4097 50.342 40.7002 50.5649 41.0988C50.7879 41.4974 50.8524 41.972 50.7444 42.42C48.2033 53.0265 46.2462 63.7776 44.8827 74.62C50.5451 79.9123 55.9257 85.5275 61.0001 91.44C66.0744 85.5275 71.455 79.9123 77.1174 74.62C75.7549 63.7775 73.7977 53.0263 71.2557 42.42C71.1478 41.972 71.2122 41.4974 71.4352 41.0988C71.6581 40.7002 72.0216 40.4097 72.4471 40.29C72.5901 40.85 72.7235 41.42 72.8665 41.99C73.2096 41.53 73.5623 41.07 73.9054 40.62C74.1925 40.8577 74.3968 41.1881 74.4868 41.56C76.8812 51.54 78.7615 61.6479 80.1197 71.84C83.4366 68.81 86.906 65.76 90.5946 62.68C90.7844 62.5187 91.006 62.4037 91.2433 62.3431C91.4807 62.2826 91.7279 62.2781 91.9671 62.33C91.8527 62.9 91.7479 63.47 91.6335 64.05C92.0719 63.68 92.5104 63.32 92.9488 62.96C93.2212 63.3236 93.3451 63.7857 93.2933 64.245C93.2414 64.7042 93.0182 65.1232 92.6724 65.41Z" fill="#FF5086"/>
<path d="M87.7446 100.629C87.4246 100.629 87.1114 100.532 86.8425 100.35C86.5736 100.168 86.3604 99.9085 86.2282 99.6027C86.096 99.2969 86.0506 98.9576 86.0972 98.6254C86.1438 98.2933 86.2806 97.9822 86.4913 97.7294C87.3035 96.7587 88.0786 95.7546 88.815 94.7194C88.9412 94.5228 89.1042 94.3552 89.294 94.2267C89.4839 94.0982 89.6966 94.0115 89.9194 93.9719C90.1421 93.9323 90.3702 93.9405 90.5898 93.9962C90.8094 94.0518 91.0159 94.1537 91.1969 94.2956C91.3778 94.4375 91.5294 94.6165 91.6424 94.8217C91.7555 95.027 91.8276 95.2541 91.8544 95.4895C91.8812 95.7248 91.8622 95.9634 91.7985 96.1908C91.7348 96.4182 91.6277 96.6297 91.4837 96.8124C90.6993 97.9124 89.8634 99.0024 88.9951 100.038C88.8387 100.224 88.6462 100.373 88.4306 100.475C88.215 100.577 87.9811 100.63 87.7446 100.629ZM71.0497 113.6C70.6679 113.601 70.2975 113.464 70.0004 113.212C69.7032 112.961 69.4973 112.61 69.417 112.219C69.3367 111.827 69.3868 111.418 69.5591 111.061C69.7313 110.703 70.0152 110.419 70.3634 110.254C74.5755 108.245 78.489 105.608 81.983 102.425C82.3169 102.12 82.7526 101.967 83.1943 101.999C83.636 102.031 84.0474 102.246 84.3381 102.596C84.6288 102.947 84.775 103.404 84.7444 103.867C84.7139 104.331 84.5091 104.762 84.1752 105.067C80.4357 108.474 76.247 111.295 71.7388 113.445C71.5222 113.548 71.2873 113.601 71.0497 113.6Z" fill="#FFEEA4"/>
</svg>
