<svg width="92" height="92" viewBox="0 0 92 92" fill="none" xmlns="http://www.w3.org/2000/svg">
<path d="M62.734 29.2656C63.4467 33.8232 63.0729 38.4846 61.6431 42.8704C60.2133 47.2562 57.7679 51.2423 54.5061 54.5041C51.2442 57.766 47.2581 60.2114 42.8724 61.6412C38.4866 63.0709 33.8251 63.4447 29.2676 62.7321C30.1059 68.0694 32.4046 73.0707 35.9095 77.1825C39.4143 81.2942 43.9885 84.3559 49.1258 86.0288C54.2631 87.7017 59.7631 87.9204 65.017 86.6609C70.2709 85.4013 75.0738 82.7126 78.8942 78.8922C82.7145 75.0719 85.4033 70.2689 86.6628 65.015C87.9224 59.7611 87.7036 54.2611 86.0307 49.1238C84.3579 43.9866 81.2961 39.4124 77.1844 35.9075C73.0727 32.4027 68.0714 30.1039 62.734 29.2656Z" fill="#FF5086"/>
<path d="M62.9185 36.9434C62.2015 43.5862 59.2343 49.784 54.5095 54.5081C49.7847 59.2322 43.5865 62.1985 36.9436 62.9147C37.7899 66.7221 39.6437 70.2322 42.3111 73.0778C44.9785 75.9235 48.3615 78.0002 52.1063 79.0907C55.8511 80.1812 59.8202 80.2455 63.5983 79.2768C67.3765 78.3081 70.8249 76.3421 73.5831 73.5843C76.3413 70.8266 78.3078 67.3783 79.2769 63.6003C80.2461 59.8223 80.1824 55.8533 79.0924 52.1083C78.0024 48.3634 75.9262 44.9801 73.0809 42.3123C70.2356 39.6445 66.7258 37.7902 62.9185 36.9434Z" fill="#FFEEA4"/>
<path d="M33.8086 63.0845C49.9774 63.0845 63.0847 49.9771 63.0847 33.8083C63.0847 17.6396 49.9774 4.53223 33.8086 4.53223C17.6398 4.53223 4.53247 17.6396 4.53247 33.8083C4.53247 49.9771 17.6398 63.0845 33.8086 63.0845Z" fill="#FF5086"/>
<path d="M33.8086 55.5733C45.8292 55.5733 55.5738 45.8287 55.5738 33.8082C55.5738 21.7876 45.8292 12.043 33.8086 12.043C21.7881 12.043 12.0435 21.7876 12.0435 33.8082C12.0435 45.8287 21.7881 55.5733 33.8086 55.5733Z" fill="#FFEEA4"/>
<path d="M73.7293 42.9596V44.3755C73.7272 45.7721 73.1714 47.111 72.1839 48.0985C71.1963 49.0861 69.8575 49.6419 68.4608 49.6439C67.7289 49.6441 67.027 49.935 66.5094 50.4525C65.9919 50.9701 65.701 51.672 65.7008 52.4039C65.6987 53.8006 65.143 55.1394 64.1554 56.127C63.1679 57.1146 61.829 57.6703 60.4324 57.6724C59.7004 57.6726 58.9985 57.9634 58.481 58.481C57.9634 58.9985 57.6726 59.7004 57.6724 60.4324C57.6703 61.829 57.1146 63.1679 56.127 64.1554C55.1394 65.143 53.8006 65.6987 52.4039 65.7008C51.672 65.701 50.9701 65.9919 50.4525 66.5094C49.935 67.027 49.6441 67.7289 49.6439 68.4608C49.6419 69.8575 49.0861 71.1963 48.0985 72.1839C47.111 73.1714 45.7721 73.7272 44.3755 73.7293H42.9596C42.1603 72.9488 41.4226 72.1078 40.753 71.2136H44.3755C45.1052 71.2123 45.8046 70.9219 46.3206 70.4059C46.8365 69.8899 47.127 69.1905 47.1283 68.4608C47.1293 67.0619 47.6854 65.7206 48.6746 64.7314C49.6637 63.7423 51.0051 63.1861 52.4039 63.1852C53.1336 63.1839 53.833 62.8934 54.349 62.3774C54.865 61.8615 55.1554 61.1621 55.1568 60.4324C55.1577 59.0335 55.7138 57.6922 56.703 56.703C57.6922 55.7138 59.0335 55.1577 60.4324 55.1568C61.1621 55.1554 61.8615 54.865 62.3774 54.349C62.8934 53.833 63.1839 53.1336 63.1852 52.4039C63.1861 51.0051 63.7423 49.6637 64.7314 48.6746C65.7206 47.6854 67.0619 47.1293 68.4608 47.1283C69.1905 47.127 69.8899 46.8365 70.4059 46.3206C70.9219 45.8046 71.2123 45.1052 71.2136 44.3755V40.753C72.1097 41.4203 72.9509 42.1581 73.7293 42.9596ZM79.8243 55.8683C78.8425 56.8214 77.5269 57.3527 76.1586 57.3489C75.4278 57.3488 74.7268 57.6385 74.2093 58.1546C73.6919 58.6707 73.4003 59.371 73.3986 60.1018C73.3965 61.4984 72.8408 62.8372 71.8532 63.8248C70.8657 64.8124 69.5268 65.3681 68.1302 65.3702C67.3983 65.3704 66.6964 65.6612 66.1788 66.1788C65.6612 66.6964 65.3704 67.3983 65.3702 68.1302C65.3681 69.5268 64.8124 70.8657 63.8248 71.8532C62.8372 72.8408 61.4984 73.3965 60.1018 73.3986C59.371 73.4003 58.6707 73.6919 58.1546 74.2093C57.6385 74.7268 57.3488 75.4278 57.3489 76.1586C57.3534 77.5284 56.819 78.8451 55.8611 79.8243C54.6902 79.7027 53.5314 79.484 52.3968 79.1702L53.5252 78.5018C53.926 78.2563 54.2569 77.9118 54.486 77.5015C54.7151 77.0911 54.8347 76.6286 54.8333 76.1586C54.8339 74.7609 55.3889 73.4204 56.3766 72.4314C57.3643 71.4423 58.704 70.8855 60.1018 70.883C60.8314 70.8817 61.5309 70.5912 62.0468 70.0753C62.5628 69.5593 62.8532 68.8599 62.8546 68.1302C62.8555 66.7313 63.4117 65.39 64.4008 64.4008C65.39 63.4117 66.7313 62.8555 68.1302 62.8546C68.8599 62.8532 69.5593 62.5628 70.0753 62.0468C70.5912 61.5309 70.8817 60.8314 70.883 60.1018C70.8855 58.704 71.4423 57.3643 72.4314 56.3766C73.4204 55.3889 74.7609 54.8339 76.1586 54.8333C76.6312 54.8342 77.0959 54.7129 77.5077 54.4812C77.9195 54.2495 78.2644 53.9152 78.5089 53.5108L79.1774 52.4399C79.4922 53.5617 79.7086 54.7089 79.8243 55.8683ZM49.3493 18.5796V19.9955C49.3468 21.3933 48.7899 22.733 47.8009 23.7207C46.8119 24.7084 45.4714 25.2634 44.0736 25.2639C43.344 25.2653 42.6445 25.5557 42.1286 26.0717C41.6126 26.5877 41.3221 27.2871 41.3208 28.0168C41.3199 29.4156 40.7637 30.757 39.7746 31.7461C38.7854 32.7353 37.4441 33.2914 36.0452 33.2924C35.3155 33.2937 34.6161 33.5842 34.1001 34.1001C33.5842 34.6161 33.2937 35.3155 33.2924 36.0452C33.2914 37.4441 32.7353 38.7854 31.7461 39.7746C30.757 40.7637 29.4156 41.3199 28.0168 41.3208C27.2871 41.3221 26.5877 41.6126 26.0717 42.1286C25.5557 42.6445 25.2653 43.344 25.2639 44.0736C25.2634 45.4714 24.7084 46.8119 23.7207 47.8009C22.733 48.7899 21.3933 49.3468 19.9955 49.3493H18.5796C17.7781 48.5709 17.0403 47.7297 16.373 46.8336H19.9883C20.7203 46.8334 21.4222 46.5426 21.9397 46.025C22.4573 45.5075 22.7481 44.8056 22.7483 44.0736C22.7504 42.677 23.3061 41.3382 24.2937 40.3506C25.2813 39.363 26.6201 38.8073 28.0168 38.8052C28.7487 38.805 29.4506 38.5142 29.9682 37.9966C30.4857 37.479 30.7766 36.7771 30.7768 36.0452C30.7788 34.6486 31.3346 33.3097 32.3222 32.3222C33.3097 31.3346 34.6486 30.7788 36.0452 30.7768C36.7771 30.7766 37.479 30.4857 37.9966 29.9682C38.5142 29.4506 38.805 28.7487 38.8052 28.0168C38.8073 26.6201 39.363 25.2813 40.3506 24.2937C41.3382 23.3061 42.677 22.7504 44.0736 22.7483C44.8044 22.7485 45.5055 22.4588 46.0229 21.9427C46.5404 21.4266 46.8319 20.7263 46.8336 19.9955V16.373C47.7297 17.0403 48.5709 17.7781 49.3493 18.5796ZM41.5221 13.4621C41.2602 14.6294 40.6085 15.6726 39.6743 16.4199C38.7402 17.1673 37.5793 17.5741 36.383 17.5733C35.6533 17.5747 34.9539 17.8651 34.4379 18.3811C33.922 18.897 33.6315 19.5965 33.6302 20.3261C33.6292 21.725 33.0731 23.0663 32.084 24.0555C31.0948 25.0447 29.7535 25.6008 28.3546 25.6018C27.6249 25.6031 26.9255 25.8935 26.4095 26.4095C25.8935 26.9255 25.6031 27.6249 25.6018 28.3546C25.6008 29.7535 25.0447 31.0948 24.0555 32.084C23.0663 33.0731 21.725 33.6292 20.3261 33.6302C19.5965 33.6315 18.897 33.922 18.3811 34.4379C17.8651 34.9539 17.5747 35.6533 17.5733 36.383C17.5741 37.5793 17.1673 38.7402 16.4199 39.6743C15.6726 40.6085 14.6294 41.2602 13.4621 41.5221C13.1565 40.7392 12.902 39.9373 12.7002 39.1214C12.7352 39.1085 12.7713 39.0989 12.808 39.0927C13.4401 38.9742 14.0109 38.6385 14.4217 38.1437C14.8325 37.6489 15.0575 37.0261 15.0577 36.383C15.0598 34.9864 15.6155 33.6475 16.6031 32.66C17.5907 31.6724 18.9295 31.1167 20.3261 31.1146C21.0581 31.1144 21.76 30.8235 22.2775 30.306C22.7951 29.7884 23.0859 29.0865 23.0861 28.3546C23.0882 26.9579 23.644 25.6191 24.6315 24.6315C25.6191 23.644 26.9579 23.0882 28.3546 23.0861C29.0865 23.0859 29.7884 22.7951 30.306 22.2775C30.8235 21.76 31.1144 21.0581 31.1146 20.3261C31.1167 18.9295 31.6724 17.5907 32.66 16.6031C33.6475 15.6155 34.9864 15.0598 36.383 15.0577C37.0261 15.0575 37.6489 14.8325 38.1437 14.4217C38.6385 14.0109 38.9742 13.4401 39.0927 12.808C39.0989 12.7713 39.1085 12.7352 39.1214 12.7002C39.9373 12.902 40.7392 13.1565 41.5221 13.4621ZM55.4443 31.4668C54.4656 32.4308 53.1452 32.9683 51.7714 32.9618C51.0406 32.9635 50.3404 33.255 49.8243 33.7725C49.3082 34.2899 49.0184 34.9909 49.0186 35.7218C49.0162 37.1195 48.4593 38.4592 47.4703 39.4469C46.4812 40.4346 45.1408 40.9896 43.743 40.9902C43.0133 40.9915 42.3139 41.282 41.7979 41.7979C41.282 42.3139 40.9915 43.0133 40.9902 43.743C40.9896 45.1408 40.4346 46.4812 39.4469 47.4703C38.4592 48.4593 37.1195 49.0162 35.7218 49.0186C34.9909 49.0184 34.2899 49.3082 33.7725 49.8243C33.255 50.3404 32.9635 51.0406 32.9618 51.7714C32.9669 53.1421 32.4355 54.4604 31.4811 55.4443C30.2825 55.3232 29.0968 55.0971 27.9377 54.7686L29.1811 54.093C29.5718 53.8453 29.8929 53.5022 30.1143 53.096C30.3356 52.6899 30.4498 52.234 30.4461 51.7714C30.4486 50.3737 31.0055 49.034 31.9945 48.0463C32.9835 47.0586 34.324 46.5036 35.7218 46.503C36.4526 46.5013 37.1529 46.2097 37.6689 45.6923C38.185 45.1749 38.4748 44.4738 38.4746 43.743C38.4767 42.3464 39.0324 41.0075 40.02 40.02C41.0075 39.0324 42.3464 38.4767 43.743 38.4746C44.4738 38.4748 45.1749 38.185 45.6923 37.6689C46.2097 37.1529 46.5013 36.4526 46.503 35.7218C46.5036 34.324 47.0586 32.9835 48.0463 31.9945C49.034 31.0055 50.3737 30.4486 51.7714 30.4461C52.245 30.4471 52.7108 30.3259 53.1238 30.0943C53.5367 29.8626 53.883 29.5283 54.1289 29.1236L54.783 27.9808C55.1026 29.1218 55.3238 30.288 55.4443 31.4668Z" fill="#FF5086"/>
</svg>
