<svg width="332" height="122" viewBox="0 0 332 122" fill="none" xmlns="http://www.w3.org/2000/svg">
<path d="M190.194 43.9727H158.814C161.587 68.609 161.606 93.4777 158.869 118.118H190.269C187.757 93.468 187.732 68.6277 190.194 43.9727Z" fill="#B37A59"/>
<path d="M331.675 75.5711C330.813 66.3038 327.472 58.0549 320.283 51.7205C307.329 40.3214 282.65 39.4659 268.725 50.0164C258.392 57.8444 255.533 68.9448 255.221 80.9957C255.486 93.2164 258.242 104.249 268.413 112.077C274.523 116.782 281.672 118.778 289.222 119.314C301.361 120.176 312.767 118.146 321.769 109.164C331.111 99.8427 332.822 88.0158 331.675 75.5711ZM293.804 112.634H293.764C293.628 112.643 293.492 112.643 293.356 112.634C292.693 112.537 292.062 112.283 291.517 111.894C291.024 111.599 290.589 111.217 290.233 110.767C286.221 106.36 283.356 94.7508 283.356 81.1247C283.356 67.4987 286.241 55.8076 290.274 51.4354C290.526 51.1442 290.809 50.8802 291.116 50.6478C291.801 50.0349 292.66 49.6505 293.574 49.5479H293.764H293.804C299.582 49.5479 304.26 63.6696 304.26 81.084C304.26 98.4984 299.582 112.634 293.804 112.634Z" fill="#B37A59"/>
<path d="M152.548 75.7461C151.292 64.992 147.442 55.6092 138.121 49.2681C131.06 44.4681 123.082 42.8251 114.664 42.6825C95.6538 42.377 82.0753 52.5269 77.6488 70.5184C76.5285 75.0808 76.8408 75.7665 81.1316 78.1359C87.3166 67.0763 98.9263 66.3498 108.968 69.5543C117.216 72.1953 123.381 78.2649 123.225 82.3045C120.251 80.5529 117.115 78.1427 113.53 76.7102C107.297 74.205 100.705 74.4019 94.1602 75.59C82.9308 77.6267 75.5441 85.5091 75.3947 95.5572C75.191 109.57 80.8261 117.065 93.5492 119.7C95.8575 120.175 98.1862 120.576 100.508 121.003H108.655C114.216 119.897 119.749 118.742 123.537 112.856V118.002H154.646C153.967 104.424 153.356 91.0898 152.717 77.7625C152.656 77.104 152.629 76.4183 152.548 75.7461ZM119.491 111.206C119.332 112.446 118.71 113.579 117.751 114.38C116.792 115.181 115.565 115.589 114.317 115.524H113.971H113.693C108.995 115.524 105.193 108.335 105.193 99.461C105.193 90.7775 108.839 83.7031 113.401 83.4112H113.51C116.409 83.1736 118.262 84.8573 119.321 87.2471C119.43 87.4983 119.545 87.7563 119.654 88.0211C121.409 91.5817 122.283 95.5123 122.2 99.4813C122.166 104.098 121.127 108.273 119.491 111.206Z" fill="#B37A59"/>
<path d="M258.141 44.5713C253.165 39.2621 241.799 38.7597 236.592 44.4695C233.102 48.285 230.638 53.1461 228.282 57.8307C226.517 61.3272 225.661 65.2989 224.399 69.033L223.76 68.904C224.093 63.6966 224.439 58.4961 224.772 53.2548C225.119 48.4308 226.056 43.6677 227.562 39.072C229.599 32.6426 230.787 20.6528 218.539 7.6989C210.997 -0.271675 186.358 -2.05046 174.715 2.34897C159.779 8.03158 158.21 21.902 158.21 21.902C158.21 21.902 158.21 22.1328 158.251 22.5334C158.292 22.934 158.21 23.2123 158.21 23.545C158.219 25.9159 158.765 28.254 159.805 30.3843C160.846 32.5147 162.355 34.3822 164.219 35.8471C166.83 38.1329 170.166 39.4198 173.635 39.4794C173.948 39.4794 174.267 39.4794 174.579 39.4794C176.805 39.4863 179.01 39.0453 181.063 38.1826C185.734 36.7026 191.247 33.5795 191.247 27.0754C191.247 15.7374 204.893 18.4395 204.893 25.1676C204.893 29.9201 203.454 32.6358 202.619 33.79C202.205 34.3739 201.79 34.9645 201.431 35.5823C199.493 38.7625 197.024 41.587 194.132 43.9331C196.782 68.5674 196.796 93.4142 194.173 118.051H225.179C224.704 107.189 224.405 96.6041 223.706 86.0129C223.333 80.405 225.369 75.8629 228.608 71.6536C230.95 68.6188 234.039 66.8333 237.997 67.2678C242.329 67.743 246.64 68.4423 251.033 69.0533C251.142 68.923 251.237 68.782 251.318 68.6324C253.925 62.5221 256.39 56.3167 259.193 50.3014C260.293 47.8845 259.777 46.3094 258.141 44.5713Z" fill="#B37A59"/>
<path d="M32.5884 39.6886C32.6427 37.1087 32.4798 33.4153 36.6619 33.5104C40.6336 33.5986 40.4775 37.1494 40.7966 39.804C41.4755 45.602 41.8897 51.434 42.4056 57.2184H72.129C71.8302 54.0886 71.6605 51.1896 71.2599 48.3245C69.6984 37.0068 62.9363 29.6337 51.673 28.079C45.2961 27.2134 38.854 26.9271 32.4254 27.2235V27.142C23.8334 27.1366 15.591 30.5437 9.51043 36.6141C3.42986 42.6844 0.00899894 50.9212 0 59.5132L0 87.0504C0.00203927 94.3471 2.4656 101.43 6.99218 107.153C11.5188 112.876 17.8436 116.904 24.9437 118.586V118.668C25.5276 118.77 26.1114 118.858 26.6953 118.946C27.8187 119.146 28.9518 119.287 30.0899 119.367C38.0546 120.175 46.094 119.832 53.9609 118.349C66.1816 116.081 72.8894 104.818 71.4704 89.7253H42.2766C42.1884 91.0017 42.1477 92.1152 42.0322 93.215C41.4551 98.7143 41.0817 104.254 40.1312 109.686C39.88 111.118 38.0469 112.958 36.6008 113.345C34.2246 113.983 33.3216 111.756 33.0908 109.76C32.8871 108.036 32.6563 106.311 32.4526 104.58V48.8269C32.4843 45.7853 32.5295 42.7392 32.5884 39.6886Z" fill="#B37A59"/>
</svg>
